<svg class="logo" viewBox="0 0 174 34" fill="none" xmlns="http://www.w3.org/2000/svg">
    <g id="logo">
        <path fill-rule="evenodd" clip-rule="evenodd" d="M134.778 26.4004C141.297 26.4004 145.199 21.5467 145.199 15.9061C145.199 10.2656 141.293 5.41187 134.778 5.41187C128.263 5.41187 124.356 10.2656 124.356 15.9061C124.356 21.5467 128.259 26.4004 134.778 26.4004ZM142.333 15.9061C142.333 20.0613 139.665 23.9876 134.778 23.9876C129.891 23.9876 127.222 20.0613 127.222 15.9061C127.222 11.751 129.891 7.82467 134.778 7.82467C139.665 7.82467 142.333 11.751 142.333 15.9061ZM62.122 25.8064V6.00218H62.114C62.114 5.94196 62.0658 5.88977 62.0014 5.88977H59.3931C59.3328 5.88977 59.2806 5.93794 59.2806 6.00218V14.5574C59.2806 14.6176 59.2323 14.6698 59.168 14.6698H48.7226C48.6623 14.6698 48.6101 14.6216 48.6101 14.5574V6.00218C48.6101 5.94196 48.5618 5.88977 48.4975 5.88977H45.8611C45.8008 5.88977 45.7485 5.93794 45.7485 6.00218V25.8064C45.7485 25.8666 45.7968 25.9188 45.8611 25.9188H48.5016C48.5618 25.9188 48.6141 25.8706 48.6141 25.8064V17.195C48.6141 17.1348 48.6623 17.0826 48.7266 17.0826H59.1761C59.2364 17.0826 59.2886 17.1308 59.2886 17.195V25.8064C59.2886 25.8666 59.3368 25.9188 59.4011 25.9188H62.0095C62.0698 25.9188 62.122 25.8706 62.122 25.8064ZM76.5865 16.8056C76.5865 14.3366 75.8832 11.0245 70.6866 11.0245V11.0285C66.973 11.0285 65.1725 13.5578 64.7827 15.6654C64.7666 15.7337 64.8228 15.7979 64.8952 15.7979H67.3388C67.391 15.7979 67.4352 15.7618 67.4473 15.7136C67.813 14.2443 69.091 13.2727 70.771 13.2727C72.7684 13.2727 73.8898 14.0877 73.8898 15.2921C73.8898 16.4965 73.2427 17.0023 71.3337 17.3396C71.0912 17.3805 70.8116 17.4194 70.5063 17.4618C68.0892 17.7977 64.0592 18.3577 64.0592 21.9684C64.0592 24.1002 65.7151 26.2601 69.1433 26.2601C72.2902 26.2601 73.4959 24.4655 73.8898 23.3414H73.9179V23.9316C73.9179 24.6502 73.9179 25.1922 73.9661 25.8185C73.9701 25.8747 74.0184 25.9229 74.0787 25.9229H76.7031C76.7754 25.9229 76.8277 25.8626 76.8156 25.7944C76.687 25.0597 76.5865 23.9276 76.5865 22.8677V16.8056ZM73.942 19.1903C73.942 22.7553 71.836 24.1283 69.6738 24.1283C67.9296 24.1283 66.752 23.2611 66.752 21.9403C66.752 20.5392 67.9336 19.921 70.0114 19.5556C71.9968 19.2184 72.9573 18.7447 73.4597 18.1907C73.6325 18.002 73.942 18.1304 73.942 18.3834V19.1903ZM93.2695 18.628C93.2695 23.1445 90.6853 26.2599 86.614 26.2599C84.0017 26.2599 82.2614 24.5496 81.7269 23.1445H81.6988V31.4187C81.6988 31.4829 81.6465 31.5311 81.5862 31.5311H79.0623C78.998 31.5311 78.9498 31.4789 78.9498 31.4187V11.5302C78.9498 11.4659 79.002 11.4177 79.0623 11.4177H81.5581C81.6224 11.4177 81.6706 11.4699 81.6706 11.5302V14.2802H81.6988C82.2333 12.8229 84.0017 11.0805 86.614 11.0805C90.6853 11.0805 93.2695 14.1116 93.2695 18.628ZM86.0795 23.9876C89.0576 23.9876 90.5728 21.6872 90.5728 18.628C90.5728 15.5689 88.9732 13.3247 86.0795 13.3247C83.017 13.3247 81.5581 15.8499 81.5581 18.628C81.5581 21.4062 82.9889 23.9876 86.0795 23.9876ZM102.481 26.2599C106.552 26.2599 109.136 23.1445 109.136 18.628C109.136 14.1116 106.552 11.0805 102.481 11.0805C99.8686 11.0805 98.1002 12.8229 97.5657 14.2802H97.5376V11.5302C97.5376 11.4699 97.4893 11.4177 97.425 11.4177H94.9292C94.8689 11.4177 94.8167 11.4659 94.8167 11.5302V31.4187C94.8167 31.4789 94.8649 31.5311 94.9292 31.5311H97.4532C97.5135 31.5311 97.5657 31.4829 97.5657 31.4187V23.1445H97.5938C98.1284 24.5496 99.8686 26.2599 102.481 26.2599ZM106.44 18.628C106.44 21.6872 104.925 23.9876 101.946 23.9876C98.8558 23.9876 97.425 21.4062 97.425 18.628C97.425 15.8499 98.8839 13.3247 101.946 13.3247C104.84 13.3247 106.44 15.5689 106.44 18.628ZM116.134 23.2007H116.162C117.044 20.533 117.997 17.7398 118.942 14.9684L118.945 14.9597C119.341 13.797 119.736 12.6382 120.124 11.494C120.14 11.4499 120.185 11.4178 120.233 11.4178H122.881C122.962 11.4178 123.014 11.4981 122.986 11.5743C121.822 14.6643 120.896 17.1048 119.984 19.509L119.983 19.5127C118.921 22.3111 117.878 25.0608 116.499 28.7289C115.852 30.4672 114.787 31.5351 112.818 31.5351H110.824C110.76 31.5351 110.712 31.4829 110.712 31.4227V29.4034C110.712 29.3391 110.764 29.291 110.824 29.291H112.311C113.608 29.291 113.891 28.613 114.287 27.6626L114.333 27.5526L114.795 26.3322C114.807 26.3041 114.803 26.276 114.795 26.2479C113.996 24.2683 113.206 22.3189 112.422 20.3859L112.418 20.3751C111.219 17.4193 110.036 14.5019 108.863 11.5743C108.835 11.4981 108.887 11.4178 108.968 11.4178H111.588C111.636 11.4178 111.676 11.4459 111.692 11.49C112.432 13.455 113.171 15.3998 113.911 17.3447C114.65 19.29 115.39 21.2353 116.129 23.2007H116.134ZM160.809 18.628C160.809 23.1445 158.225 26.2599 154.154 26.2599C151.541 26.2599 149.801 24.5496 149.266 23.1445H149.238V31.4187C149.238 31.4829 149.186 31.5311 149.126 31.5311H146.602C146.538 31.5311 146.489 31.4789 146.489 31.4187V11.5302C146.489 11.4659 146.542 11.4177 146.602 11.4177H149.098C149.162 11.4177 149.21 11.4699 149.21 11.5302V14.2802H149.238C149.773 12.8229 151.541 11.0805 154.154 11.0805C158.225 11.0805 160.809 14.1116 160.809 18.628ZM153.619 23.9876C156.597 23.9876 158.112 21.6872 158.112 18.628C158.112 15.5689 156.513 13.3247 153.619 13.3247C150.557 13.3247 149.098 15.8499 149.098 18.628C149.098 21.4062 150.528 23.9876 153.619 23.9876ZM164.571 15.2314C164.571 14.0552 165.893 13.2964 167.24 13.2964C168.646 13.2964 170.105 13.9468 170.318 15.6931C170.322 15.7493 170.37 15.7935 170.427 15.7935H172.838C172.906 15.7935 172.963 15.7333 172.955 15.665C172.621 12.5537 170.177 11.0522 167.296 11.0522C164.655 11.0522 161.902 12.65 161.902 15.3439C161.902 17.588 163.783 18.9048 165.974 19.4669L168.023 19.9727C169.346 20.31 170.523 20.6994 170.523 21.9359C170.523 23.5337 168.92 24.0396 167.489 24.0396C165.64 24.0396 164.523 23.337 164.165 21.6067C164.153 21.5545 164.109 21.5144 164.056 21.5144H161.577C161.508 21.5144 161.452 21.5746 161.46 21.6428C161.806 25.1356 164.88 26.2838 167.404 26.2838C170.101 26.2838 173.22 24.7983 173.22 21.7673C173.22 19.3826 171.114 18.3187 168.867 17.7567L166.958 17.2789C165.64 16.9417 164.571 16.3274 164.571 15.2314Z" fill="#141414"></path>
        <path d="M5.8902 0C2.63379 0 0 2.62106 0 5.86173V28.1383C0 31.374 2.63379 34 5.8902 34C9.14166 34 11.7804 31.3789 11.7804 28.1383V5.86173C11.7755 2.62106 9.14166 0 5.8902 0Z" fill="url(#paint0_linear_2094_1362)"></path>
        <path d="M28.0284 0C24.7769 0 22.1382 2.62106 22.1382 5.86173V28.1383C22.1382 31.374 24.772 34 28.0284 34C31.2799 34 33.9186 31.3789 33.9186 28.1383V5.86173C33.9186 2.62598 31.2799 0 28.0284 0Z" fill="url(#paint1_linear_2094_1362)"></path>
        <path d="M7.43236 10.9964H5.35201C2.43162 10.9964 0.0597269 8.66545 0.00537109 5.77393C0.00537109 5.80835 0.00537109 5.84277 0.00537109 5.87719V16.9565C0.00537109 20.1971 2.64904 22.828 5.90545 22.828H11.7808V10.9964H7.4373H7.43236Z" fill="#2D75FF"></path>
        <path d="M22.1781 10.9958H11.7764V22.8275H22.1781V10.9958Z" fill="#F78CFE"></path>
        <path d="M28.018 10.9958H22.1426V22.8275H28.5665C31.5165 22.8275 33.9081 25.2076 33.918 28.1434V16.8674C33.918 13.6267 31.2744 10.9958 28.018 10.9958Z" fill="#FF6E7B"></path>
    </g>
    <defs>
        <linearGradient id="paint0_linear_2094_1362" x1="5.8902" y1="0" x2="5.8902" y2="33.9951" gradientUnits="userSpaceOnUse">
            <stop stop-color="#1AF8FD"></stop>
            <stop offset="0.6" stop-color="#00B8FF"></stop>
            <stop offset="1" stop-color="#05E2FA"></stop>
        </linearGradient>
        <linearGradient id="paint1_linear_2094_1362" x1="28.0284" y1="0" x2="28.0284" y2="33.9951" gradientUnits="userSpaceOnUse">
            <stop stop-color="#FEE952"></stop>
            <stop offset="0.47" stop-color="#FDA76B"></stop>
            <stop offset="1" stop-color="#FFFF47"></stop>
        </linearGradient>
    </defs>
</svg>