<svg xmlns="http://www.w3.org/2000/svg" width="27" height="26" fill="none" viewBox="0 0 27 26"><path fill="url(#paint0_linear_1953_2041)" d="m23.906 0 2.032.063.03.906a26.1 26.1 0 0 1-.093 3.781c-.125 1.354-.292 2.427-.5 3.219-.333 1.166-.823 2.073-1.469 2.718-.541.542-1.573 1.417-3.093 2.626-.98.791-2.47 1.947-4.47 3.468l-1.187.907.094 1.687a3.739 3.739 0 0 1-.344 1.844 3.71 3.71 0 0 1-1.125 1.468l-3.844 3.125-.343-1.625-.656-3.28-3.844-3.845-4.907-.968L1.22 14.78l2.093-2.562a3.71 3.71 0 0 1 1.47-1.125 3.738 3.738 0 0 1 1.843-.344l1.719.094.875-1.156c3.146-4.105 5.187-6.626 6.125-7.563.646-.646 1.552-1.135 2.719-1.469.791-.229 1.843-.406 3.156-.531A29.682 29.682 0 0 1 23.906 0ZM23 2c-.375 0-.906.031-1.594.094-.979.083-1.906.26-2.781.531-.917.27-1.542.573-1.875.906-.438.438-1.25 1.396-2.438 2.875a187.035 187.035 0 0 0-3.53 4.5 406.115 406.115 0 0 0-3.595 4.781l-.28.376 3.062 3.062 5.156-3.938a268.341 268.341 0 0 0 4.5-3.5c1.48-1.208 2.427-2.02 2.844-2.437.312-.313.604-.917.875-1.813.27-.916.448-1.864.531-2.843.083-.854.115-1.677.094-2.469v-.094h-.313C23.386 2.011 23.166 2 23 2Zm-4.563 3.531c.563 0 1.042.198 1.438.594.396.396.594.875.594 1.438 0 .562-.198 1.041-.594 1.437a1.958 1.958 0 0 1-1.438.594A1.958 1.958 0 0 1 17 9a2.014 2.014 0 0 1-.563-1.438c0-.562.188-1.041.563-1.437a1.958 1.958 0 0 1 1.438-.594ZM6.5 12.75a1.737 1.737 0 0 0-.906.188 1.981 1.981 0 0 0-.75.562l-1.032 1.25 1.344.281 1.719-2.25-.375-.031Zm-2.281 5.188 1.406 1.406c-.354.354-.73 1.073-1.125 2.156 1.042-.375 1.75-.75 2.125-1.125l1.406 1.406c-.687.688-1.708 1.26-3.062 1.719-.417.146-.834.26-1.25.344l-2 .406.312-1.469c.104-.541.271-1.146.5-1.812.48-1.375 1.042-2.386 1.688-3.032Zm9 1.187-2.25 1.719.281 1.343 1.281-1.03c.25-.21.438-.449.563-.72.125-.291.177-.604.156-.937l-.031-.375Z"/><defs><linearGradient id="paint0_linear_1953_2041" x1="14" x2="14" y1="-20" y2="44" gradientUnits="userSpaceOnUse"><stop stop-color="#FCCC77"/><stop offset=".5" stop-color="#F98AE8"/><stop offset="1" stop-color="#FD7AAD"/></linearGradient></defs></svg>